<svg xmlns="http://www.w3.org/2000/svg" viewBox="0 0 3000 3000">
  <defs>
    <style>
      .cls-1, .cls-2, .cls-3 {
        fill: #fffcf3;
      }

      .cls-2 {
        font-size: 398.34px;
      }

      .cls-2, .cls-3 {
        font-family: BradleyHandITC, Bradley Hand ITC;
      }

      .cls-3 {
        font-size: 91px;
      }
    </style>
  </defs>
  <g id="Layer_2" data-name="Layer 2">
    <rect width="3000" height="3000"/>
  </g>
  <g id="Layer_1" data-name="Layer 1">
    <g>
      <path class="cls-1" d="M1594.52,895.32c13-4,26.12-7.62,39.26-11.45,38.45-11.42,60.11-21.8,93.49-44.79,21.72-15.1,40.89-27.39,65.43-37.74a162.22,162.22,0,0,1,25.84-8.14c-21.55,14.11-38.46,32.08-60.73,47.09-40.55,25.08-70.43,34.86-115.84,47-20.53,5.4-39.4,10.27-58.34,16.16a126.25,126.25,0,0,0,10.89-8.14Zm-42.68,42.79c32.3-13.07,61.47-20.45,94.91-29.18,48.32-12.87,79.87-23.45,122.84-50.44,25.46-17.49,48.55-43.38,74.79-56.41,4.39-1.89,14-3.93,19.07-5.37,4.09-1.2,7.51-2.19,11-4.76.48-.52,1.86-1.59,2.12-2.22a10.65,10.65,0,0,0,2-4.81,10.41,10.41,0,0,0-1.13-6.43,10.78,10.78,0,0,0-3.05-3.56,16.73,16.73,0,0,0-7.81-2.89c-16-2.27-28.37-1.92-44.27.86a175.58,175.58,0,0,0-36.68,11.45c-25.79,11.58-45.38,24.72-67.91,41.5-28,20.38-47.9,31.49-79.94,43.91-9,3.44-18,6.68-26.94,10.07a177.66,177.66,0,0,0,24-32.79c16.25-30.39,17.77-46.57,24.41-71.92,3.17-7.29,6.18-14.51,9-21.91a30,30,0,0,1,3.29-2.23c5.91-3.37,11.86-5.31,18.4-7.07,13.72-3.44,25.76-4.85,39.7-6.37,58.11-2.06,105.5,12.84,163.27,14.05l2.83-.05c-6,10.88-9.42,19.84-10.1,32.4-.17,8.83,1.09,14.5,3.07,22.91,1.06,4.63,2,8.64,1.1,13.38-1.67,6.55-6.53,11.53-11.29,16.07a116.56,116.56,0,0,1-23.25,17c-19.4,10.91-23.75,19.79-33.49,39.92-10,20.5-20.66,33.33-38.25,47.74-18,13.89-34.11,22.17-54.82,31.12-25.7,8.53-46.08,8.9-72.69,5.26-26.49-4.3-48.34-11.4-73.3-20.91-12.12-4.79-23.12-10.58-35.57-14.91l-.41-.14-1.18-.37c2.11-1.12,4.32-2.08,6.35-2.94Zm162.61,55.73c21,3.75,42.07,8.57,61.86,16.57,1.13.46,8.41,3.43,8.87,3.84,32.21,15.67,51,32.63,70.73,62.52,19.21,35.56,15.35,71.62,20.06,110.93,0,.23,0,.51.1.74,1.06,7.16,3.91,23.56,7,36.83-39.53-18.8-62.7-27.65-108.68-26.54-12,.5-24.6,1.1-36.08-3.19a32.83,32.83,0,0,1-11.29-7.66c-4.7-4.9-7.59-9.61-10.84-15.54-8.69-18-16.38-31.11-32.22-43.71-2.23-1.71-4.43-3.14-6.74-4.7-16.27-10.06-30.8-16.3-47.27-27.74-41.25-33.29-54.41-57.19-75.43-93.52-.43-.95-.86-1.9-1.3-2.85a318.7,318.7,0,0,0,59.48,43.08,138.52,138.52,0,0,0,27.15,9.62q5.55,1.32,11.07,2.38c6,5.23,12.28,10.16,18.54,14.9,21,15.3,42.78,28.86,66.86,38.72,1.63.7,3.47,1.33,5.15,2,11.83,4.4,23.27,8.45,34.8,13.68,12.52,5.95,22.88,11.83,31.84,22.66,1,.88,2.14,2.49,3.41,2.94a12.15,12.15,0,0,0,17.84-7.38,11.87,11.87,0,0,0,.36-4.36,12.24,12.24,0,0,0-1.26-4.31c-12-22.46-28.69-42.4-47.77-59.21-27.73-22.23-50.33-28.94-84.67-34.81-15.26-2.44-30.38-4.23-45.46-7.44-7.93-7.65-15-16.07-20-25.43a8.4,8.4,0,0,1-.8-2.59c.06-.28,0-.76.23-1.07a6,6,0,0,1,1.62-1.75,19.66,19.66,0,0,1,3.68-2.13c7.08-3,14.12-4,21.61-5.38l2.78-.41c18.83,2.6,35.06,3,52.39,0l2.39.39Zm180.62,191.73c0-.08-.09-.55-.11-.67-6.1-43.78-2-77-25.15-117-22.41-32-43.73-50-79.74-65.07l-.23-.09a213,213,0,0,0-39.63-11.2,111.68,111.68,0,0,0-13.87-4.43c21.75-9,39-17.78,58.1-32.13,20.2-16.1,32.44-30.62,44.1-53.76,8.16-16.55,10.34-22.64,26-31.1a131.71,131.71,0,0,0,27.14-19.47c8.26-7.74,14.32-14.74,17.34-25.86,1.81-8.49.93-14.1-.89-22.38-1.42-6.34-2.57-11.08-2.39-17.67.6-9,3.5-15.65,7.92-23.49,1.22-2.06,3.4-5.83,4.22-7.24,1.88-2.95,3.54-5.49,4.55-8.91a12.48,12.48,0,0,0,.41-4.22,11.36,11.36,0,0,0-6.8-9.54,16.43,16.43,0,0,0-3.48-1c-5.48-.55-13.66.47-19.63.49-58.7-1.66-104.26-17-165.05-15-15.21,1.48-28.58,3.15-43.52,6.85-2.52.67-4.91,1.35-7.24,2.09,6.39-28.89,5.7-49.92-3.79-78.38a152.38,152.38,0,0,0-11.13-20.37c-24.86-34.83-47.35-43.3-73-71.66-3.4-4-6.82-7.93-10.37-11.79-16-16.94-26.66-23.7-47.06-34.67-2.8-1.14-6.92-4.37-9.87-4.87a14.21,14.21,0,0,0-3-.52,11.58,11.58,0,0,0-6.08,1.28,11.41,11.41,0,0,0-5.75,7.23,11.84,11.84,0,0,0-.08,5.55,18.35,18.35,0,0,0,1.52,4c.13,3.44.29,6.85.35,10.3-.41,59.08-14.11,68.32-38.64,118.67-6,14.31-9.9,26.38-10.29,42,.18,12.88,2.55,21.74,8.49,33.13a15.81,15.81,0,0,1,.81,1.4c-26.81-18.85-38-26.54-61.78-51.63-14.68-13.85-27.79-22.15-46.72-29.2-19.36-6.52-34.83-8.29-55.17-6.5-19.18,2.76-31.09,5.51-46.92,17-8.06,6.18-15.64,13.25-23.36,19.88-6.11,5-11.75,8.89-19.54,10.76a29.31,29.31,0,0,1-12.23,0c-1.56-.23-4.45-1.07-5.84-1.06-1,0-3.86-.38-4.64,0A13,13,0,0,0,1182,696a19.34,19.34,0,0,0-.22,5.37,63.89,63.89,0,0,0,2,9.95c4.45,15.64,9.43,26,19.77,38.54,9.39,10.77,18.92,18.36,30,27.15,7.36,6,11.64,11.11,15.18,20,3,8.47,3.75,16.05,4.44,24.94.87,12.14,1.53,21.91,3.14,31.11-29.71-3.31-59.66-6.2-90.55-10.07-20.1-2.69-39.51-5.79-59.39-9.86C1063,823.81,1026,813.62,985,796.15c-11.77-5.2-22.7-10.61-33.94-16.9A315.87,315.87,0,0,1,898.37,742c-1.85-1.62-17.35-16.38-18.37-15.55-.58,4.16,15.36,21.86,18.84,25.53,16.12,16.87,34.93,31,54.92,42.91,8.38,5,16.64,9.45,25.37,13.79,41.58,19.9,78.77,31.32,123.41,41.93,19.2,4.91,40.89,8.36,60.54,11.34,33.65,4.87,66.59,8.46,99.35,12.65A141.12,141.12,0,0,0,1271,892c5,7.46,9.75,14.3,14.68,20.8a158.24,158.24,0,0,0-22.08-3c-11.85,1-21.43,2.51-32.48,7.06-8.55,3.84-13.91,7.67-20.69,14.06-14.16,14-20.19,22.74-37.43,35-13.31,9.07-26.85,17.66-40.24,26.59a420.14,420.14,0,0,0-44.34,34c-6.46,5.73-12.64,11.23-19.27,16.22-7.3-2-14.69-4.17-22.4-6.5-11.4-3.5-22.75-7.15-34.1-10.79-61.92-20.54-124.14-43.71-188.47-55.25-11.45-16.81-25.71-34.17-44-56.39C771.45,903.1,764,893.06,758,880.54c-3.69-8.29-5.48-14.6-6-23.67,0-.39-.09-1.42,0-1.75.3-21.93,10.14-48.25,16.7-69.25,2.9-9.62,4.7-17.79,4.7-27.89-.31-9.54-2.06-16.53-7.54-24.45-5.94-7.7-12.15-11.48-21.28-14.53-9.93-2.92-18.4-3.39-28.68-3.15-25,1.33-43.22,7-63.91,21.16-18.25,13.64-29.22,27.48-38.06,48.49-7.85,21.16-9.31,38.5-4.45,60.6,6.55,24.16,17.46,39.68,36.47,55.8,30.47,23.67,55.79,33.44,89.38,50.15,7.47,3.85,14.2,7.54,20.39,11.3-14.81.5-27.58,2.52-42.16,8.29-13.59,6-22.64,12.56-31.5,24.53-7.67,11.34-10.95,21.12-12.55,34.65-1.17,13.64.08,24.31,3.5,37.52,8,27.16,20.28,47,40.91,66.44,10.6,9.3,19.86,15.36,33,20.63,2.81,1.06,5.52,2,8.42,2.75a77.72,77.72,0,0,0,30.35,2.25,101.07,101.07,0,0,0,28.67-7.67,70.12,70.12,0,0,0,21.39-14.59,79.71,79.71,0,0,0,8.81-11.16c22.45,167.27,24.73,290.13,109.22,453.09.42.75,3.28,6,3.53,6.22,110.56,172.6,273.33,319.22,454.8,414.82,56.7,27.22,104.63,43,167.52,48.11.59-.12,8.47.47,9.84.52,44.7,1,80.38-3.82,120.87-23.55,73.41-42.3,86.1-79.78,140.4-137,28.25-28.72,55.73-57.08,82.63-86a121.62,121.62,0,0,1,20.86,9.42,131.5,131.5,0,0,1,21.54,15.61,159.27,159.27,0,0,1,18.18,19.18c18.39,23.12,33.57,48,52.24,71.32a219.41,219.41,0,0,0,23.52,24.87c1.39,1.23,7.82,6.81,9,7.35,9.46,6.91,17.48,11.4,28.76,14.81,1.53.44,9.59,2.32,10.51,2,.42-.15,5.24.34,5.41-.64s-4.27-2.17-4.78-2.47a127.07,127.07,0,0,1-13.33-5.95,112.24,112.24,0,0,1-20.94-14.73,171.24,171.24,0,0,1-12.24-12.16c-6-6.56-11.2-13.33-16.51-20.42-17.39-24.14-32-49.77-49.66-73.48a186.55,186.55,0,0,0-19.4-21.5,148.34,148.34,0,0,0-23.85-18.18,150.85,150.85,0,0,0-16.85-8.58c21.42-23.35,42.48-47.17,63.27-71.93,34.32-41.3,66.42-84.17,95.27-129.43,14.46-20,28.14-40.66,41.1-61.56,26.67-43.51,49.14-84.72,67.09-132.63,23.87-73.19,34-137.44,45.32-212.94,4.28-28.43,8.6-56.7,13.63-85a90.78,90.78,0,0,1,4.25-16.65,24.9,24.9,0,0,1,2.29-4.5,126.1,126.1,0,0,0,20,14.83c10.68,5.59,19.22,7.68,31.3,6.22,14.08-2.47,23.55-8.66,34.22-17.86,12.45-11.89,24.34-30,29.38-46.43a13.44,13.44,0,0,0-21.59-13.75c-21.67,16.94-39.86,18-66.07,22.65-4.6.84-9,1.71-13.45,2.8-.31-.57-.62-1.14-.95-1.7,1-1.59,1.08-2.5-.17-1.46l-1.15-.73a85.21,85.21,0,0,0-7.88-10.6c-4.28-4.66-8.6-9.19-13.07-13.68-31.23-30.51-58.78-51.42-100.89-64.71-23.42-6.41-41.56-7.74-65.68-4.95-27,4-46.9,11.46-71,24-16.64,9.2-28.23,18-39.8,33.16-9.52,13.43-14.06,24.65-17.53,40.66a164.41,164.41,0,0,0-2.64,20.5c-1.6,24.39,1.38,47.66,2.75,71.86.35,6.29.85,12.64,1.37,19-.62,13.41-.91,26.84-1.08,40.26-.45,47.07.86,89,7.34,135.81,2,14.21,3.66,27.79,4.45,42.14.74,17.19.37,31.68-3.14,48.61-3.32,14.13-7.43,24.44-16.42,36-10.21,12-20.22,18.09-35,23.5-18.08,5.08-31.19,5.72-49.48,1.57a155.13,155.13,0,0,1-30.29-11.55c-.13-.3-.28-.6-.43-.9-.8-1.47-1.64-2.83-2.56-4.22-6.33-9.09-16.36-20.81-25-28.36.08-7.77,0-15.54-.44-23.3-.14-2.63-.6-8.77-1.31-15.66.25-6.09,0-13.11,0-14.51-1-14.51-3-26.33-7.94-40.06a89.91,89.91,0,0,0-7.2-14.84,67.25,67.25,0,0,0-10.47-13.17c-9.74-9-18.6-13.14-31.66-15.4-15.11-2.06-26.79-1.38-41.52,2.59a95.1,95.1,0,0,0-35.35,18.86,93.09,93.09,0,0,0-24.46,31.93,97.07,97.07,0,0,0-4.51,11.63,95.79,95.79,0,0,0-4.3,29.89c.46,15,2.73,26.42,10.65,39.35,7.41,10.89,15.06,17,26.88,22.58,23.23,9.77,44.83,10.3,69.6,9.68,23.44-.18,34.77,3.71,49.07,10.15q-1.23,9.72-2.61,19.39c-4.41,30.79-9.28,61.11-12.39,92.1-.11,1.11-.21,2.22-.32,3.31l-1.63-.45c-38.15-12.17-48.24-16.07-89.3-14.5-24.23,1.32-48.19,3.16-72.35,5.33-32.56,3-65,6.11-97.59,8.24-17.09,1.14-28.95,2.35-39.18,2.46l-12.45-7.41a216.82,216.82,0,0,0-30-15,108,108,0,0,0-17.91-5.49c-6.51-1.24-11.79-1.68-18.37-.54a15.7,15.7,0,0,0-7.25,3.16,11.8,11.8,0,0,0-3.7,13.19,14.18,14.18,0,0,0,4.46,6.13,37.16,37.16,0,0,0,3.83,2.65c4.16,2.38,7.93,3.85,12.09,5.91,27.19,13.25,42.2,18,59.37,19.06a12.54,12.54,0,0,0-.47,3.73,11.92,11.92,0,0,0,2.23,6.62c18,23.9,43.38,48.71,65.18,69.36,2.22,2.09,19.55,18.22,21.06,18.8,59.12,45.57,99.66,55.4,173.08,59.5,18.28.7,34,.33,51.61-4.95,10.17-3.36,17.47-7.12,24.79-13.12a171.49,171.49,0,0,1-20.36,19.91,75.88,75.88,0,0,1-14.8,9.55A36.72,36.72,0,0,1,1774,1788a319.64,319.64,0,0,1-33.34-.27c-53.57-3.52-106-12.27-158.81-21.34a11,11,0,0,0-10.15,18.07,347.93,347.93,0,0,0,31.31,31.79,266.89,266.89,0,0,0,27.54,21.35c12.26,8,23,13.75,36.91,18.41,13.88,4.23,24.89,5.66,39.31,3.34,31.51-6.87,58-23.57,86.71-37.56,2.67-1.26,16.26-7.63,18.27-7.84,33.89-12.16,62.91-19.74,99.19-15.94l1.74.26c-25,25.61-50.35,50.91-76.32,76.52-52,53.3-68.27,92.64-136.55,131.17-36.58,17.25-69.26,21-109.37,19.81-3.05-.15-6.08-.34-9.13-.56-59.28-5.54-104.48-20.9-157.81-46.94-175.75-94.94-334.53-237.76-442.33-405.91-.22-.63-1.55-2.73-2-3.47-89.68-171-85.48-302-113.14-486.36-7.17-39.84-15.47-66-28-89.51,57.6,11.2,113.81,31.06,169.73,48,14.67,4.37,29.25,8.73,44,12.65-12.69,5.95-22.81,7.34-37.19,7.42a11.15,11.15,0,0,0-4.11.74,10.46,10.46,0,0,0-6.54,11.65,10.82,10.82,0,0,0,.9,2.77,12,12,0,0,0,1.68,2.54,23.6,23.6,0,0,0,4.34,3.71c3.38,2.17,7.15,4.9,10.71,6.7,6.33,3.67,13.74,8,20.38,11,28.52,11.46,59.21,15.75,88.79,23.63,37.9,10.47,70.08,18.63,109.71,20.51,43.45.63,73.36-6.58,110.61-29.45q2-1.38,3.88-2.74c.15,45.14,5.08,88.5,6,135.67,5.1,110.08,46.87,93.64,69.62,187.24.77,3.77,1.34,7,3.21,10.38a13.13,13.13,0,0,0,1.79,2.31,11.52,11.52,0,0,0,4.37,2.77,11.23,11.23,0,0,0,7,.15,11.38,11.38,0,0,0,4.51-2.59,13.92,13.92,0,0,0,3.66-5.95c2-6,3.2-11.62,5.5-17.79,7.21-18.23,14.11-31.42,26.55-46.59,26.77-30.27,52.36-43,80.2-78.64a78.53,78.53,0,0,0,11.12-21.49c4.5-15.86,4.58-29.7,6.35-45.79,2-15.8,4.63-26.09,14.69-38.81,6.69-8.73,11.63-16.31,15.56-26.64,3.15-9.08,4.13-16.07,3.12-25.64-2.49-15.89-9.41-28-17.84-40.71,5,4.47,10.38,9.08,16.37,13.91,17.23,12,31.7,18.23,48.47,28.61.19.23,4,2.73,4.65,3.23,13.11,10.22,19.27,21.6,26.43,36.39,4.39,8.18,8.5,14.5,15,21.21a54.35,54.35,0,0,0,18.75,12.53c15.53,5.71,29.1,5.28,45.34,4.51,43.28-1.33,64,7.31,102.56,25.13,0,0,8,4.4,8.7,4.65,1.46.52,5.68,2.77,7.06,2.72a12.73,12.73,0,0,0,6.87-.13,10.81,10.81,0,0,0,5.73-4.19c2.21-3.39,2-5.24,1.54-9.12-5.48-18.61-9.6-34.72-12.78-53.92Zm108-173.74c10.46-12.8,20.85-20.08,35.42-27.71,22.37-11,40.82-17.59,65.64-20.69,21.42-2.07,37.41-.62,58.06,5.4A192.69,192.69,0,0,1,2204,988.41a212.3,212.3,0,0,0-23.38-8.64c-.09,0-7.17-1.84-8-2-35-7.1-61-3.82-94.19,8.93-19.65,8.37-33.94,18.28-49.37,33-15.27,15.38-25.45,29.5-33.08,49.92a12.93,12.93,0,0,0-.7,5.63,12.42,12.42,0,0,0,1.22,4.29,12.16,12.16,0,0,0,3,3.87,12.45,12.45,0,0,0,6.34,2.94,14.15,14.15,0,0,0,3.62.1,27,27,0,0,0,6.82-1.83s6.66-2.87,7.49-2.92c19.32-3.69,46.74,2.49,66.79,4.76,5.8.56,11.16.95,16.43,1a206,206,0,0,0,42.89,13.9c18.23,3.49,33.93,4.86,52-.43,10.58-4.46,16.77-9.65,23.53-18.83,4.58-6.56,7.64-12.89,11.61-19.69,2.51-4.14,4.88-7.8,9.23-10.16a17.22,17.22,0,0,1,6.66-1.67c3.12,3,6.15,6,9.14,9a43.33,43.33,0,0,0-6.73,11.88,113.23,113.23,0,0,0-5.25,21c-4.76,28.59-8.77,57.11-12.69,85.82-10.15,74.13-19.24,138.2-41.06,210.36-14.33,41.59-32.37,78.17-53.41,116.68-14.05,25.46-29.07,50.43-44.62,75q-39.87,56.15-84.61,108.56c-28.31,32.82-57.09,64-86.49,94.55-4.32-1.07-8.86-2-13.75-2.76-39.72-4.78-70.83,2.79-108,16.06-7,2.64-13.62,5.55-20.41,8.79-25.91,12.69-53.35,29.7-81.48,35.84-11.12,1.78-19.72.48-30.4-2.78-12.17-4.08-21.62-9.23-32.32-16.23a245.75,245.75,0,0,1-25-19.4c-5.53-4.94-10.71-9.85-15.72-14.93,46.49,7.44,92.7,13.84,140,15.77a305.05,305.05,0,0,0,35.13-.79,51.17,51.17,0,0,0,18.89-5.73,89.8,89.8,0,0,0,17.23-11.94c12.15-10.86,21.11-22,30.58-35.14,4.42-6.52,8.79-12.8,13-19.48,8.21-13,15.92-26.46,23.07-40.1.24-.47,1-1.85,1.88-3.6a77.1,77.1,0,0,1,5-6.91c2.39-2.35,4.67-4.86,7.12-7.22.59-.57,1.51-1.35,2-1.93a6,6,0,0,0,1.19-1.75,6.34,6.34,0,0,0,.45-2,5.65,5.65,0,0,0-.3-2,6.53,6.53,0,0,0-1.06-1.86c-.46-.36-1.07-1.15-1.7-1.33a6,6,0,0,0-2-.6,6.18,6.18,0,0,0-2.1.16,6.79,6.79,0,0,0-1.95,1,117.13,117.13,0,0,0-17.52,15.92c-15.8,16.41-27.16,37.5-42,54.56-.89,1-5.47,6.14-6.3,6.59-8.53,7.85-15.44,11.7-26.57,15-15.9,4.07-30.48,3.94-46.75,3-69.26-5.46-106.74-14.86-162-58.6-6.79-5.87-13.3-12-19.77-18.26-15.25-14.82-33.08-32.41-48.06-49.89,6.09,1.32,12.15,2.71,18.21,4.11,7,2,14.82,3.73,24.48,5.61l.55.12c47.73,10.66,93.31,22.45,141.76,30.65,50.28,7.71,95.85,12,145.43-2.47,2.1-.64,4.27-1.45,6.33-2.22,20-7.89,40-19.56,59.68-28a52.86,52.86,0,0,0,16.24,6.32,23.15,23.15,0,0,0,10.69-.44,18.31,18.31,0,0,0,10.14-7.44,19.29,19.29,0,0,0,2.86-6.33,15.64,15.64,0,0,0,0-7.69,15.43,15.43,0,0,0-3.55-6.52,17.9,17.9,0,0,0-5-3.84,24.81,24.81,0,0,0-10.44-2.7,33.3,33.3,0,0,0-10.78,1.26c-2.68.81-5.32,1.71-7.94,2.68-4.68-3.25-9-6.62-13.88-10.21-11.47-8-21.41-13.8-35.28-16.49-10.37-1.56-17.28-.7-27.29,1.94-12.87,3.63-20,6.16-29.47,5.69.1-1.55.2-3.13.3-4.73,1.86-25.94,4.9-51.48,7.74-77.31,1.1-10.13,2.16-20.3,3-30.49,4.11,1.88,8.62,3.9,13.76,6a15.14,15.14,0,0,0,3,.8c12.58,6.36,24.09,11.3,38.68,15,22.65,5,39.14,4.12,61.42-2.4,19-7.08,31.79-15.22,44.72-31,11-14.52,16-27.27,19.83-45,3.53-19,3.69-34.82,2.39-54-1.19-15-3.2-29-5.78-43.82-7.16-42.41-10.21-82.46-12.86-125.25-.91-14.84-1.73-29.69-2.89-44.5q0-11.45-.2-22.86c-.56-28.69-2.5-56.42,2.73-84.81.14-.68.72-3.76.93-4.18,3.48-13.7,7.64-23.23,16.19-34.56Zm166.62,14.55a50.38,50.38,0,0,0-14.4-27.27c3.42.44,6.94,1,10.59,1.71,1.28.28,7.37,1.59,8.16,2,23.68,7.27,41.68,17.56,59.54,31.43-7,4.29-11,9.34-15.55,16.7-1.91,2.86-9.09,16.74-10.77,18-4.13,5.47-6.77,7.66-12.91,10.64-13.28,3.58-26.68,1.89-40-.76-2.48-.55-4.9-1.12-7.29-1.74l.69-.46a53.05,53.05,0,0,0,14.87-15.78,50.51,50.51,0,0,0,6.85-17.14A47.78,47.78,0,0,0,2169.73,1026.38Zm139.46,36.4c18-3,31.87-4.78,45.4-9.49a73.34,73.34,0,0,1-6.61,7.25c-6.65,5.69-13.29,10.58-22.09,12.08-6.45.74-10.81-.66-16.48-3.66a77.71,77.71,0,0,1-7.21-4.89C2304.53,1063.61,2306.86,1063.19,2309.19,1062.78Zm-211-20.33a27.51,27.51,0,0,1,.08-12.57,13.14,13.14,0,0,1,1.8-4,8.62,8.62,0,0,1,2.53-2.43,10.71,10.71,0,0,1,5.53-1.85,9.84,9.84,0,0,1,4.9,1.32,18.78,18.78,0,0,1,5.41,4.59,26.79,26.79,0,0,1,4.27,7.28,24.35,24.35,0,0,1,1.74,8,15.53,15.53,0,0,1-1.08,6.64,11.84,11.84,0,0,1-3.77,4.89,22.09,22.09,0,0,1-9,3.85c-1.6.33-3.09.59-4.55.75-.74-.88-1.45-1.82-2.17-2.84A38.2,38.2,0,0,1,2098.16,1042.45ZM2028.8,1057a131.62,131.62,0,0,1,16.91-20.25c2.13-2,4.23-3.94,6.33-5.77-.09,1.24-.14,2.51-.15,3.86a47.61,47.61,0,0,0,3,16.61,64.47,64.47,0,0,0,3,6.46,147.59,147.59,0,0,0-29.14-.91Zm-300.93,262.31a82.45,82.45,0,0,1,34.67-3.61c10,1.27,16.75,3.95,24.59,10.31a59.74,59.74,0,0,1,13.12,16.33,58.31,58.31,0,0,1,3.17,6.15c6.34,14.14,9.35,27,12.17,42.15,0,.18.08.46.14.83.13,6.12.28,11.51.27,12.77,0,9.06-.38,18.11-.94,27.16a77.71,77.71,0,0,0-30.78-12.15,76.36,76.36,0,0,0-32.77,1.91,75.15,75.15,0,0,0-21.63,9.72,30.87,30.87,0,0,0-6.41,5.55,15.87,15.87,0,0,0-1.68,2.58,12.93,12.93,0,0,0-.9,2.42,11.22,11.22,0,0,0-.35,2.41,95.72,95.72,0,0,1-20-5.5c-8-3.66-13.22-7.45-18.33-14.67-5.91-9.17-7.46-17.75-8-28.52a77.58,77.58,0,0,1,2.86-23.91c.46-1.61,2.57-8.27,3.34-9.35a75.6,75.6,0,0,1,19-26.19A79.05,79.05,0,0,1,1727.87,1319.28ZM1808,1616.79c12,.8,21.44-1.94,37.32-6.44,6.56-1.73,11-2.51,17.78-1.49,10,2,17.93,6.91,26.16,12.68l3.39,2.51c-15.73,7.7-31.15,16.29-47.51,22.24-.63.23-3.74,1.4-4.17,1.44a214.05,214.05,0,0,1-44.85,7.86,73,73,0,0,0,7.51-17.49A161.52,161.52,0,0,0,1808,1616.79ZM1577.61,969c17.78,7.34,33.93,13.32,51.27,18-1.82.81-4.6,2-5.5,2.93a20.22,20.22,0,0,0-5.54,5.56,16,16,0,0,0-2.65,8.27,20.43,20.43,0,0,0,1.82,9.1,95.11,95.11,0,0,0,5.62,10.32c-25.59-14.22-55-37.23-73.93-59.53-1.1-1.75-6-8.1-7.73-11.14.57.2,1.11.4,1.65.61,12.14,4.6,23.11,10.77,35,15.88Zm127.76,630.24c38.1-1.47,46,2.13,81.59,13.46q3,.86,5.67,1.51a147.26,147.26,0,0,1-4.33,19.14c-2.21,6.66-4.57,12.19-9.1,17.62a23,23,0,0,1-6,5l-.32.18c-22.1-.37-44.28-3.16-67-6.56-48-7.93-93.47-19.46-140.84-29.56-9.65-2-19.23-4.22-28.84-6.32-.82-.28-1.63-.56-2.43-.85l2-.12c32.2-1.73,64.67-5.16,96.8-8.09,24.34-2.2,48.45-4.2,72.85-5.44ZM1587.42,872.1a140.27,140.27,0,0,1-11.79,10c1.86-4.27,3.72-8.49,5.55-12.71a29.34,29.34,0,0,0,9.91-.91c-1,1-1.94,2-2.95,3-.07.05-.61.59-.72.69Zm-44-32.52c3.72,15.85,3.52,28.2,1,44.24-1.34,7.44-2.92,13.69-6.27,20.5a31.17,31.17,0,0,1-8.45,10.73,23.3,23.3,0,0,1-10.13,4.49,38.92,38.92,0,0,1-13.23,0,95.15,95.15,0,0,1-10.39-2.63c-.67-1.06-1.38-2.13-2.14-3.23C1480,894.82,1464.61,878.33,1449,861c-12.76-14.14-32.63-35-39.63-52.33-13.43-33.15-20.69-57-50.36-80.15-24.85-17.18-48.6-21.37-78.13-24.46-5.44-.64-10.65-1.49-16.16-1.78-1.12.05-3.53-.15-4.52.18s-2.63.46-3.45,1.13a9.06,9.06,0,0,0-2.72,2.2,8.75,8.75,0,0,0-2,4.76,8.9,8.9,0,0,0,.74,4.53,11.33,11.33,0,0,0,1.53,2.4,15.42,15.42,0,0,0,2.57,2.24,38.94,38.94,0,0,0,5.48,3c38.78,19,53.38,32.89,77.32,68.55.58.67,1.62,2.47,2.17,3.31,23.06,35.22,38.78,58.92,64.5,85.22-5.2-1.61-10.33-3-15.31-4.25-38.46-9.79-75.71-15.53-113.1-20.07-2.46-10.6-2.87-21.14-3.69-35.07-.77-11.31-1.69-20.07-5.45-30.9-5-12.85-11.16-20.68-21.74-29.45-9.67-7.75-18.63-14.85-26.75-24.3a72.3,72.3,0,0,1-14.2-26.71,50.21,50.21,0,0,0,14.47-1c11.81-2.8,19.9-7.84,29.19-15.51,7.14-6.12,14.24-12.75,21.61-18.52,12.53-9.32,21.51-11,36.9-13.29,16.66-1.44,29.36,0,45.21,5.36,15.55,5.79,26.23,12.54,38.35,23.84,25.35,26.74,37.83,35.22,67.38,56,25.21,17.89,48.12,34.1,67.31,58.75,2,2.75,3.82,5.38,5.49,8.09,2.82,5.76,5.58,11.53,8.45,17.13a97.41,97.41,0,0,1,3,9.63Zm-158.75-61.84c17.46,30.74,21.25,51.1,46.58,79.17,16.12,17.87,30.23,32.23,45.07,51.68-12.29-6.55-23.68-15-34.3-23.84-37.28-33-56.69-60.16-84.25-100.81-.29-.43-2-3.13-2.22-3.28-19.69-28.38-34.27-44.22-57.8-58.54,18.85,2.39,36,6.7,53.38,17.59C1366.1,750.43,1375.62,761.8,1384.67,777.74Zm219.08,56.31c-3.74,4.49-7.86,9-13,12q1.6-4.19,3.13-8.49a180.49,180.49,0,0,0,8-30.61c1.3-9.2,1.68-16.8.19-25.48,1.2-5.49,2.06-10.23,2.43-13.19a177.93,177.93,0,0,0,1-25.8c-1.38-28.39-7.4-53.29-13.68-80.82l-2.73-11.85c-10.85-45.91-18.23-70.09-39.67-104.69a148.55,148.55,0,0,1,14.29,13.75c2.72,3,6.24,6.7,8.63,9.86,24.56,27.24,49.29,38.62,71.47,69.59,3.91,5.94,5.92,11.2,9.1,16.38,7.84,24.22,8.2,41.47,2.72,66.18-1.71,6.74-3.7,13.2-5.89,19.51a30.39,30.39,0,0,0-6.51,10.82c-2.24,7-4,13.33-5.49,19.24-2.47,5.65-5,11.34-7.59,17.16-7.42,16.76-15.07,31.87-26.42,46.42Zm-24-51.51c1.72,7.3,1.31,13.77.26,21.12a157.59,157.59,0,0,1-7,26.71c-1.07,3-2.19,6-3.33,9-2-2.69-4-5.81-6-9.24a114.91,114.91,0,0,0-7.82-19.74,135.39,135.39,0,0,0-11.72-18.79q-1.26-1.62-2.52-3.18A173.17,173.17,0,0,0,1528.32,767c-13.25-15.72-30.93-32.43-41.72-49.25-.19-.32-1.24-2-1.3-2.24-4.44-8.27-6.24-14.5-6.48-23.93.13-12.66,3.48-22.9,8.21-34.54,23-48.42,36.14-61.14,38.11-110.08,10.2,18.26,16.15,35.49,19.72,59.84,3.56,30.08,2.74,61.48,4.94,92.06,6.48,45.48,19.72,48.59,30,83.64Zm16.88-39.49a183.08,183.08,0,0,1,.62,22.49c-9.43-24.84-20.57-34.29-25.55-68.75-1.77-24.94-1.6-50.08-3.36-74.9,3.82,12.37,7.45,26.11,11.72,42.63.4,2.29,1.39,5.37,2,7.71,6.21,24,12,46.07,14.57,70.82Zm95.75,318.44c29.94,5,50,10.33,74.3,29.51,4.94,4.24,9.75,8.79,14.37,13.58-11-4.58-21.84-8.24-33.14-12.16a50.38,50.38,0,0,1-5-1.76c-20-7.53-38.6-18.21-56.32-30.05ZM1520.75,989c7.74,12.66,14.15,23.8,20.08,34,.32.73.63,1.46.94,2.19,10.72,25.3,22.33,56.72,36.36,79.92,7.8,11.61,16.61,24.11,18.73,38.24a32.81,32.81,0,0,1-2,15.65c-3,7.77-7.11,13.79-12.14,20.37-12.9,16.25-16.89,29.67-19.54,49.88-1.57,13.76-1.82,28.08-5.47,41.4a56.7,56.7,0,0,1-8.08,15.5c-26.55,33.78-53.94,48.13-80.53,78.87a180.37,180.37,0,0,0-24.35,39.86c-23.72-68.53-57.53-67.61-61.69-157.21-1.07-52.83-7.41-102.58-5.8-154.34a156.31,156.31,0,0,0,12.77-15,128.16,128.16,0,0,0,19.24-38.19c.66-2.15,3-9.63,3-11.46a42.76,42.76,0,0,0,.67-12.77,21.56,21.56,0,0,0-4.58-11.5,16.69,16.69,0,0,0-5.46-4.34,16.46,16.46,0,0,0-6.74-1.7,20.74,20.74,0,0,0-11.61,3.27c-7.6,4.93-12,11.25-16.24,19.12-5.67,11.32-8.37,21.41-10.46,33.86-1.09,9.76-1.83,19.35-2.28,28.82a168.46,168.46,0,0,1-16.71,13c-33,20.28-59.27,26.45-97.75,26-37.46-1.64-68.76-9.56-104.67-19.28-28-7.28-59.8-11.78-86.27-22.15-1.87-.81-3.94-1.84-6.07-3a100.73,100.73,0,0,0,18.92-7.47,140.28,140.28,0,0,0,16.21-10.47,230.46,230.46,0,0,0,40.6,4.76c37.7-.12,64.57-9,97.36-23.92,7.91-2.73,15.69-5.48,23.18-8,20.83-7.14,44.63-16,66.12-20.31,22.93-4.5,45.74-5.83,68.56-10.67,9-2.37,21.71-8.46,29.55-13.53a10.4,10.4,0,0,0,3.65-4.39,10.55,10.55,0,0,0-.38-9.31l.61.17a144.16,144.16,0,0,0,33.26,3.51,128.43,128.43,0,0,0,26.51-3.88c2.27-.62,4.43-1.27,6.5-2a121.8,121.8,0,0,0-4.71,15.36,321.52,321.52,0,0,0-5.64,35.65c-.08.72-.22,1.58-.25,2.29-4.86,49.16-2.16,87.21-1,135.77.41,48.94-4.41,81.09-18.83,127.81a9.79,9.79,0,0,0-.47,3.52,9.6,9.6,0,0,0,17.85,4.39c17.26-30.55,47.83-86.46,59-118.42a110,110,0,0,0,3.53-14.32c2.17-12.69,1.54-29-2.76-41.23-5.38-17.18-13.5-32.79-20.54-49.32-3.42-8.54-6.81-17-9.66-25.72-1.14-3.61-2.64-11.84-4-20.09a166.71,166.71,0,0,1-.83-23,.62.62,0,0,1,0-.13c.73-4.17,1.58-8.36,2.59-12.63a88.48,88.48,0,0,1,9.58-24,26.06,26.06,0,0,1,3.87-4.87A239.93,239.93,0,0,1,1520.75,989Zm-32.1,73.82c1.47,4.7,3.33,9.49,4.71,14.14,6.05,16.38,13.48,32.4,18,49.22,4.38,18.54,3.61,30.77-2.27,48.92-.29.59-.57,1.36-.84,2-7.69,17.48-22.85,45.92-36,69.82,5.93-27,8.3-52.63,8.43-85.48-.5-44.55-2.46-80.68,1.59-124.55.7,3.16,1.5,6.52,2.38,9.86C1486,1053.28,1487.5,1059.09,1488.65,1062.8Zm-100.07-30.9a112.09,112.09,0,0,1-7.59,19,82,82,0,0,1,6.91-20c.53-1,1.14-2.08,1.81-3.19C1389.36,1029.13,1389,1030.51,1388.58,1031.9Zm-3.41-135.18c30.81,8.85,55.74,18,82.64,35.71,2.47,1.68,4.86,3.39,7.25,5.17,5,3.92,9.5,7.71,13.6,11.51l-.47.6c-.64.63-1.24,1.28-1.83,2s-1.53,1.33-2.43,2c-6,4.17-12,6.19-19,7.94a115.92,115.92,0,0,1-23.47,2.83,130.72,130.72,0,0,1-29.55-3.82c-31.43-9.69-61-26-91.93-37.62-12.43-13-21.64-26-31.9-41.72-.67-1.2-1.29-2.38-1.88-3.53,32.85,4.62,65.66,10.31,98.94,19Zm-19.59,79.57c5.32,2.17,10.39,3.81,15.46,5.36a87.14,87.14,0,0,1-9.93,4c-22.48,5.4-45.18,7.34-67.91,12.63-18.16,4.77-36.4,11.78-53.93,18.48-26.52,10.18-52.94,21.14-79.68,30.73a178.62,178.62,0,0,1-49.32,4.35,231.74,231.74,0,0,1-26.74-3.47c2.64-2.32,5.3-4.71,8-7.19a409.36,409.36,0,0,1,41.94-32.82c13.33-9.11,26.81-17.89,40.07-27.12,18.65-13.49,24.38-22.11,39.39-37.38a50.09,50.09,0,0,1,15.24-10.72c8.94-3.85,16.46-4.91,26-6,13.21.68,26.94,3.86,40.9,8.36,2.7,2.75,5.53,5.5,8.53,8.27,13.68,12.29,34.63,26.2,51.88,32.48Zm-580.92,9.19a175.77,175.77,0,0,1,23.55,29.42A162.48,162.48,0,0,1,825.89,1054c3.76,13.32,5.65,24.66,4.45,38.53-1.44,11.51-4.3,19.71-12.23,28.35a45.75,45.75,0,0,1-13.9,9.6,76.5,76.5,0,0,1-21.68,5.92,54,54,0,0,1-21-1.38,48.15,48.15,0,0,1-6.14-1.94c-10.22-4-17.47-8.74-25.76-15.87-17.24-15.88-27.7-32.5-34.59-54.9-2.76-10.26-3.93-18.63-3.14-29.27,1-9.37,3.07-16.24,8.29-24.14,6.07-8.45,12.44-13,21.86-17.25,13.88-5.73,26.31-7.09,41.23-7.32q10.75.32,21.43,1.2ZM742.25,777.66c-8,25.66-17.58,50.79-17.94,77.88,0,1.8.11,3.57.24,5.37,1.06,11.82,3.52,20.35,8.34,31.17,7.13,15,15.52,26.46,26,39.29l5.34,6.49c-5.26-3.09-10.87-6.17-16.89-9.33-31-15.63-56.51-25.66-84.4-47.51-14.06-12-22.28-23.38-27.07-41.35-3.47-16.11-2.29-28.7,3.48-44.1,6.65-15.7,14.94-26,28.61-36.2,15.85-10.77,29.73-15,48.83-16,6.69-.14,13.06,0,19.52,1.93,2.86,1,5.38,2,7.26,4.48,1.79,2.62,2.1,5.48,2.2,8.59,0,6.74-1.54,12.83-3.47,19.25Z" transform="translate(0 0)"/>
      <text class="cls-2" transform="translate(606.65 2338.93)">MATAJER</text>
    </g>
    <text class="cls-3" transform="translate(731.77 2542.17)">Your Online Hub for Health and Beauty</text>
  </g>
</svg>
